# xmcd CD database file
#
# Track frame offsets:
#	150
#	13497
#	31468
#	47740
#	64800
#	84203
#	111041
#	138127
#	157772
#	181242
#	203930
#
# Disc length: 3012 seconds
#
# Revision: 0
# Processed by: cddbd v1.5.2PL0 Copyright (c) Steve Scherf et al.
# Submitted via: CDex 1.70beta2
#
DISCID=890bc20b
DTITLE=Will Patton Ensemble - String Theory
DYEAR=2005
DGENRE=
TTITLE0=Cecel Swing
TTITLE1=Sonhando
TTITLE2=Cosmology
TTITLE3=Upper Valley Waltz
TTITLE4=No Moe
TTITLE5=Samba Do Morro
TTITLE6=Calcutta Cutie
TTITLE7=Choro for Rachel
TTITLE8=Paquito
TTITLE9=Cafe Manouche
TTITLE10=Isabel
EXTD=YEAR: 2005
EXTT0=
EXTT1=
EXTT2=
EXTT3=
EXTT4=
EXTT5=
EXTT6=
EXTT7=
EXTT8=
EXTT9=
EXTT10=
PLAYORDER=
